<svg xmlns="http://www.w3.org/2000/svg" viewBox="0 0 136.54 139.46"><defs><style>.cls-1{fill:#fff;stroke:#fff;stroke-miterlimit:10;stroke-width:7px;}</style></defs><g id="Layer_2" data-name="Layer 2"><g id="Layer_1-2" data-name="Layer 1"><path class="cls-1" d="M131.33,108a215.73,215.73,0,0,1-39.4-41.39C88.67,49.21,79.38,32.74,69.27,17.93c3-1.73,6-3.43,9-5.11,5.61-3.16.58-11.8-5-8.63q-4.86,2.73-9.73,5.55L61.57,7.07c-3.1-4.24-11-1.95-9.14,3.86q.75,2.28,1.55,4.54c-14.74,9.22-28.6,19.85-38.66,34.17C3.52,66.45-.08,88.13,7.43,107.52,14.57,126,31.77,139,52.14,135.34c21.48-3.9,37.08-25.34,40.28-45.95.27-1.69.45-3.38.57-5.07a219.35,219.35,0,0,0,31.27,30.79C129.23,119.1,136.35,112.07,131.33,108ZM82.91,75.35c1.51,19-7.87,40.11-26,48.13-16.37,7.23-32.72-2.13-39.41-17.63-6.94-16.06-4.54-34.21,4.8-48.68C31,43.6,43.88,33.57,57.56,25A223.89,223.89,0,0,0,82.33,70.4C82.58,72,82.78,73.68,82.91,75.35Z"/></g></g></svg>