<svg xmlns="http://www.w3.org/2000/svg" viewBox="0 0 994.6 531.83"><defs><style>.cls-1{fill:#fff;stroke:#fff;stroke-miterlimit:10;}</style></defs><g id="Layer_2" data-name="Layer 2"><g id="C"><path id="C-2" data-name="C" class="cls-1" d="M985.76,427.6C932,490.44,846.25,508.78,767.55,515.67c-49.63,4.34-99.66,5.48-149.46,5.56q-80.25.15-160.39-5.49c-49.24-3.47-98.65-7.92-147.37-16q-6.7-1.11-13.41-2.35L277,493.44c-32.39-6.86-64.34-16.12-94.58-29.59C142.51,446.08,106.29,421,77.73,387.8A281.4,281.4,0,0,1,19.34,276.35c-22.17-84.23-1-176.66,54.18-243.87A277.48,277.48,0,0,1,95.26,9c4.64-4.48-2.44-11.54-7.07-7.07-64,61.72-97,153.61-85.37,241.92,11.54,87.26,63.56,165.45,139.1,210.37C183.6,479,229.6,494,277,503.91l19.95,3.85c38.33,6.86,77.28,10.84,115.34,14.31A2196.7,2196.7,0,0,0,739,527.73c80.62-4.71,169.31-16.92,232.67-71.67a201,201,0,0,0,21.21-21.38C997,429.81,990,422.7,985.76,427.6Z"/></g></g></svg>