<svg xmlns="http://www.w3.org/2000/svg" viewBox="0 0 134 200.58"><defs><style>.cls-1{fill:#fff;stroke:#fff;stroke-miterlimit:10;stroke-width:7px;}</style></defs><g id="Layer_2" data-name="Layer 2"><g id="Layer_1-2" data-name="Layer 1"><path class="cls-1" d="M120,187.06a119.1,119.1,0,0,1-76.31-37.89,112.86,112.86,0,0,1-21-33A151.76,151.76,0,0,0,75.84,109c15.85-5.12,33.18-12.65,44.4-25.44,11-12.49,13.2-28.71,6.44-43.83C119.72,24.18,105.37,14,89.45,9A121.9,121.9,0,0,0,62.11,4.18C52.88,3.46,42.9,2.66,34,5.55c-15.77,5.09-23.56,20.86-27.13,36-8,34-1.3,71.42,18.36,100.33C46.65,173.41,82,193.65,120,197.06,126.37,197.63,126.33,187.63,120,187.06ZM13.59,65.19c.57-13.84,2.94-30.12,11.55-41.47C35.26,10.38,54.22,13,68.94,14.85c15.34,1.89,31.3,6.71,41.88,18.6,9.29,10.44,13.4,25.65,5.88,38.21C108.15,86,89.93,93.75,74.86,98.84A144.14,144.14,0,0,1,19,106,120.23,120.23,0,0,1,13.59,65.19Z"/></g></g></svg>