<svg xmlns="http://www.w3.org/2000/svg" viewBox="0 0 136.72 357.33"><defs><style>.cls-1{fill:#fff;stroke:#fff;stroke-miterlimit:10;}</style></defs><g id="Layer_2" data-name="Layer 2"><g id="h"><path class="cls-1" d="M136.22,259.67c.14-20.84-5-43.11-18.24-59.64a50.42,50.42,0,0,0-58.74-15.57C35.6,193.84,20.7,215.26,13.56,239c-1.1,3.63-2,7.31-2.84,11,.08-35.34.17-81.51.25-116.95h0l.13-54,.18-73.66c0-6.44-10-6.44-10,0l-.3,124H1c-.1,41.54-.2,95.27-.3,136.81L.5,339.78c0,6.55,9.4,6.3,10,0,2.66-27.83,3.77-56.4,9.19-83.86,4.67-23.65,14.81-47,36.83-59.19,18.48-10.2,40.07-7.16,53.6,9.39,12.24,15,16.4,36,16.08,54.86-.52,30.9-9,61.56-1.71,92.28,1.49,6.26,11.13,3.61,9.64-2.66C127,320.49,136,290,136.22,259.67Z"/></g></g></svg>