<svg xmlns="http://www.w3.org/2000/svg" viewBox="0 0 171.97 149.73"><defs><style>.cls-1{fill:#fff;stroke:#fff;stroke-miterlimit:10;stroke-width:7px;}</style></defs><g id="Layer_2" data-name="Layer 2"><g id="Layer_1-2" data-name="Layer 1"><path class="cls-1" d="M163.64,3.5C108.1,4.89,58.21,44.21,38.88,95.5a125.1,125.1,0,0,0-5,16.8A585.94,585.94,0,0,0,13.51,50.69c-2.33-5.92-12-3.35-9.64,2.65A587.73,587.73,0,0,1,31,142.66c1.21,5.54,9.9,4.27,9.82-1.33-.7-51.18,34-99.09,80.6-118.71a116.28,116.28,0,0,1,42.19-9.12C170.07,13.34,170.09,3.34,163.64,3.5Z"/></g></g></svg>